<?xml version="1.0" encoding="UTF-8"?>
<svg id="Layer_2" data-name="Layer 2" xmlns="http://www.w3.org/2000/svg" viewBox="0 0 629.54 237.27">
  <defs>
    <style>
      .cls-1, .cls-2, .cls-3, .cls-4 {
        stroke-width: 0px;
      }

      .cls-2 {
        fill: #fff;
      }

      .cls-3 {
        fill: #0fabab;
      }

      .cls-4 {
        fill: #f1e60e;
      }
    </style>
  </defs>
  <g id="Layer_2-2" data-name="Layer 2">
    <g>
      <g>
        <rect class="cls-4" x="172.52" y="25" width="457.02" height="10.77" rx="5.38" ry="5.38"/>
        <rect class="cls-3" x="0" y="226.5" width="629.54" height="10.77" rx="5.38" ry="5.38"/>
        <rect class="cls-3" x="172.52" y="0" width="344.43" height="10.77" rx="5.38" ry="5.38"/>
        <rect class="cls-4" x="0" y="0" width="215.49" height="97.53" rx="37.13" ry="37.13"/>
        <rect class="cls-3" x="34.3" y="51.34" width="595.23" height="164.43" rx="48.77" ry="48.77"/>
        <g>
          <path class="cls-2" d="m104.02,93.91v35.14l39.85-41.56c1.91-2,3.54-3.49,4.89-4.44,1.34-.96,3.13-1.44,5.37-1.44,2.92,0,5.27.85,7.08,2.56,1.8,1.71,2.7,3.79,2.7,6.25,0,2.96-1.53,5.9-4.58,8.82l-24.68,23.38,28.44,40.74c2,2.83,3.51,5.3,4.51,7.42,1,2.12,1.5,4.18,1.5,6.19,0,2.23-.88,4.17-2.63,5.81-1.75,1.64-4.14,2.46-7.14,2.46-2.83,0-5.13-.6-6.9-1.81s-3.28-2.81-4.51-4.82c-1.23-2-2.32-3.83-3.28-5.47l-23.99-36.91-16.61,15.93v20.71c0,4.19-.96,7.3-2.87,9.33s-4.38,3.04-7.38,3.04c-1.73,0-3.4-.46-4.99-1.37-1.6-.91-2.83-2.14-3.69-3.69-.64-1.28-1.03-2.76-1.16-4.44-.14-1.69-.21-4.12-.21-7.31v-74.51c0-4.1.9-7.18,2.7-9.23,1.8-2.05,4.25-3.08,7.35-3.08s5.53,1.01,7.42,3.04c1.89,2.03,2.84,5.12,2.84,9.26Z"/>
          <path class="cls-2" d="m225.97,81.61c10.39,0,19.31,2.11,26.76,6.32,7.45,4.22,13.09,10.21,16.92,17.98,3.83,7.77,5.74,16.9,5.74,27.38,0,7.75-1.05,14.79-3.14,21.12-2.1,6.33-5.24,11.83-9.43,16.47-4.19,4.65-9.34,8.2-15.45,10.66-6.11,2.46-13.1,3.69-20.99,3.69s-14.86-1.26-21.05-3.79c-6.2-2.53-11.37-6.09-15.52-10.7-4.15-4.6-7.28-10.14-9.4-16.61-2.12-6.47-3.18-13.47-3.18-20.99s1.1-14.77,3.32-21.19c2.21-6.43,5.41-11.89,9.6-16.41,4.19-4.51,9.3-7.96,15.31-10.36s12.85-3.59,20.51-3.59Zm28.85,51.54c0-7.34-1.19-13.69-3.55-19.07-2.37-5.38-5.75-9.44-10.15-12.2-4.4-2.76-9.45-4.14-15.14-4.14-4.06,0-7.8.76-11.25,2.29-3.44,1.53-6.4,3.75-8.89,6.67-2.48,2.92-4.44,6.64-5.88,11.18-1.44,4.54-2.15,9.63-2.15,15.28s.72,10.85,2.15,15.45c1.44,4.6,3.46,8.42,6.08,11.45,2.62,3.03,5.63,5.3,9.02,6.8,3.39,1.5,7.12,2.26,11.18,2.26,5.2,0,9.97-1.3,14.32-3.9,4.35-2.6,7.82-6.61,10.39-12.03,2.57-5.42,3.86-12.1,3.86-20.03Z"/>
          <path class="cls-2" d="m319.22,93.78l39.03,59.06v-59.61c0-3.87.83-6.78,2.5-8.72,1.66-1.94,3.91-2.91,6.73-2.91s5.22.97,6.9,2.91c1.69,1.94,2.53,4.84,2.53,8.72v78.82c0,8.8-3.65,13.19-10.94,13.19-1.82,0-3.46-.26-4.92-.79-1.46-.52-2.83-1.36-4.1-2.5-1.28-1.14-2.46-2.47-3.55-4-1.09-1.53-2.19-3.09-3.28-4.68l-38.08-58.38v58.72c0,3.83-.89,6.72-2.67,8.68s-4.06,2.94-6.84,2.94-5.17-.99-6.9-2.97c-1.73-1.98-2.6-4.86-2.6-8.65v-77.31c0-3.28.36-5.86,1.09-7.72.87-2.05,2.3-3.73,4.31-5.02,2-1.3,4.17-1.95,6.49-1.95,1.82,0,3.38.3,4.68.89,1.3.59,2.44,1.39,3.42,2.39.98,1,1.98,2.3,3.01,3.9,1.03,1.6,2.08,3.26,3.18,4.99Z"/>
          <path class="cls-2" d="m461.4,172.19l-4.79-12.58h-40.74l-4.79,12.85c-1.87,5.01-3.46,8.4-4.79,10.15-1.32,1.75-3.49,2.63-6.49,2.63-2.55,0-4.81-.93-6.77-2.8-1.96-1.87-2.94-3.99-2.94-6.36,0-1.37.23-2.78.68-4.24.46-1.46,1.21-3.49,2.26-6.08l25.63-65.08c.73-1.87,1.61-4.11,2.63-6.73,1.03-2.62,2.12-4.8,3.28-6.53,1.16-1.73,2.69-3.13,4.58-4.2,1.89-1.07,4.23-1.61,7.01-1.61s5.18.54,7.08,1.61c1.89,1.07,3.42,2.45,4.58,4.14,1.16,1.69,2.14,3.5,2.94,5.43.8,1.94,1.81,4.52,3.04,7.76l26.18,64.67c2.05,4.92,3.08,8.5,3.08,10.73s-.97,4.46-2.91,6.39c-1.94,1.94-4.27,2.91-7.01,2.91-1.6,0-2.96-.29-4.1-.85-1.14-.57-2.1-1.34-2.87-2.32-.78-.98-1.61-2.48-2.5-4.51-.89-2.03-1.65-3.82-2.29-5.37Zm-40.2-27.82h29.94l-15.11-41.36-14.83,41.36Z"/>
          <path class="cls-2" d="m525.25,140.67h-7.11v32.2c0,4.24-.93,7.36-2.8,9.37-1.87,2-4.31,3.01-7.31,3.01-3.24,0-5.74-1.05-7.52-3.14s-2.67-5.17-2.67-9.23v-77.11c0-4.38.98-7.54,2.94-9.5s5.13-2.94,9.5-2.94h33.02c4.56,0,8.45.19,11.69.58,3.24.39,6.15,1.17,8.75,2.36,3.14,1.32,5.92,3.21,8.34,5.67,2.42,2.46,4.25,5.32,5.5,8.58,1.25,3.26,1.88,6.71,1.88,10.36,0,7.47-2.11,13.44-6.32,17.91-4.22,4.47-10.61,7.63-19.17,9.5,3.6,1.91,7.04,4.74,10.32,8.48,3.28,3.74,6.21,7.71,8.78,11.93,2.57,4.22,4.58,8.02,6.02,11.42,1.44,3.4,2.15,5.73,2.15,7.01s-.42,2.63-1.26,3.93c-.84,1.3-1.99,2.32-3.45,3.08-1.46.75-3.14,1.13-5.06,1.13-2.28,0-4.19-.54-5.74-1.61-1.55-1.07-2.88-2.43-4-4.07-1.12-1.64-2.63-4.06-4.55-7.25l-8.13-13.54c-2.92-4.97-5.53-8.75-7.83-11.35-2.3-2.6-4.64-4.38-7.01-5.33-2.37-.96-5.36-1.44-8.96-1.44Zm11.62-42.11h-18.73v27.55h18.18c4.88,0,8.98-.42,12.3-1.26,3.33-.84,5.87-2.28,7.62-4.31,1.75-2.03,2.63-4.82,2.63-8.37,0-2.78-.71-5.23-2.12-7.35-1.41-2.12-3.37-3.7-5.88-4.75-2.37-1-7.04-1.5-14.01-1.5Z"/>
        </g>
        <g>
          <path class="cls-1" d="m63.51,22.5h4.45v8.44c0,1.64.11,2.79.34,3.42.23.64.59,1.14,1.09,1.49s1.12.53,1.85.53,1.35-.17,1.87-.52c.51-.35.89-.86,1.14-1.54.18-.5.28-1.58.28-3.24v-8.59h4.4v7.43c0,3.06-.24,5.16-.72,6.28-.59,1.38-1.46,2.43-2.61,3.17-1.15.74-2.61,1.1-4.38,1.1-1.92,0-3.48-.43-4.67-1.29-1.19-.86-2.02-2.06-2.51-3.59-.34-1.06-.52-3-.52-5.8v-7.3Z"/>
          <path class="cls-1" d="m83.33,22.5h4.4v1.8c1-.84,1.9-1.43,2.71-1.75.81-.33,1.64-.49,2.49-.49,1.74,0,3.21.61,4.42,1.82,1.02,1.03,1.53,2.56,1.53,4.58v11.59h-4.35v-7.68c0-2.09-.09-3.48-.28-4.17-.19-.69-.51-1.21-.98-1.57-.47-.36-1.04-.54-1.73-.54-.89,0-1.65.3-2.29.89-.64.6-1.08,1.42-1.33,2.47-.13.55-.19,1.73-.19,3.56v7.03h-4.4v-17.53Z"/>
          <path class="cls-1" d="m104.85,15.29c.77,0,1.43.28,1.98.84s.83,1.24.83,2.03-.27,1.45-.82,2.01c-.55.55-1.2.83-1.96.83s-1.45-.28-2-.85c-.55-.56-.83-1.25-.83-2.05s.27-1.43.82-1.98c.55-.55,1.21-.82,1.98-.82Zm-2.2,7.22h4.4v17.53h-4.4v-17.53Z"/>
          <path class="cls-1" d="m108.95,22.5h1.56c.01-2.3.05-3.66.11-4.08.12-.97.52-1.73,1.22-2.3.69-.56,1.67-.85,2.94-.85.91,0,1.94.21,3.09.63v3.35c-.63-.18-1.15-.27-1.56-.27-.52,0-.89.11-1.13.32-.17.16-.26.49-.26,1l-.02,2.19h2.79v3.72h-2.79v13.81h-4.4v-13.81h-1.56v-3.72Z"/>
          <path class="cls-1" d="m128.51,22.05c1.65,0,3.21.41,4.67,1.24,1.46.83,2.59,1.95,3.41,3.37s1.22,2.95,1.22,4.59-.41,3.2-1.23,4.64c-.82,1.44-1.94,2.56-3.36,3.38-1.42.81-2.98,1.22-4.69,1.22-2.51,0-4.66-.89-6.44-2.68-1.78-1.79-2.67-3.96-2.67-6.52,0-2.74,1-5.02,3.01-6.85,1.76-1.59,3.79-2.38,6.07-2.38Zm.07,4.14c-1.37,0-2.5.48-3.41,1.43-.91.95-1.36,2.17-1.36,3.65s.45,2.76,1.35,3.71,2.04,1.42,3.41,1.42,2.52-.48,3.44-1.43c.92-.96,1.37-2.19,1.37-3.69s-.45-2.73-1.35-3.67c-.9-.94-2.05-1.41-3.45-1.41Z"/>
          <path class="cls-1" d="m140.37,22.5h3.77v2.21c.41-.87.95-1.53,1.63-1.98s1.42-.68,2.22-.68c.57,0,1.17.15,1.79.45l-1.37,3.79c-.52-.26-.94-.39-1.27-.39-.68,0-1.25.42-1.72,1.26-.47.84-.7,2.48-.7,4.93l.02.85v7.09h-4.37v-17.53Z"/>
          <path class="cls-1" d="m151.92,22.5h4.4v2.01c.75-.83,1.59-1.44,2.51-1.85s1.92-.61,3.01-.61,2.09.27,2.97.81c.88.54,1.59,1.32,2.13,2.35.7-1.03,1.56-1.82,2.57-2.35,1.02-.54,2.13-.81,3.33-.81s2.34.29,3.29.87c.95.58,1.63,1.34,2.04,2.27.41.93.62,2.45.62,4.56v10.28h-4.43v-8.89c0-1.99-.25-3.33-.74-4.04s-1.24-1.06-2.22-1.06c-.75,0-1.43.21-2.02.64-.6.43-1.04,1.02-1.33,1.78-.29.76-.44,1.97-.44,3.65v7.91h-4.43v-8.49c0-1.57-.12-2.7-.35-3.41s-.58-1.23-1.04-1.57c-.46-.34-1.02-.52-1.68-.52-.73,0-1.4.22-1.99.65-.6.44-1.04,1.04-1.34,1.83s-.44,2.02-.44,3.71v7.8h-4.4v-17.53Z"/>
        </g>
      </g>
      <rect class="cls-1" x="48.53" y="16.92" width="6.16" height="23.69" rx="3.08" ry="3.08"/>
      <rect class="cls-1" x="38.34" y="16.92" width="6.16" height="23.69" rx="3.08" ry="3.08"/>
      <rect class="cls-1" x="28.15" y="16.92" width="6.16" height="23.69" rx="3.08" ry="3.08"/>
    </g>
  </g>
</svg>